# xmcd
#
# Track frame offsets:
#	150
#	19537
#	35762
#	51802
#	69330
#	83952
#	94987
#	116237
#	128182
#	150835
#	166360
#	182130
#
# Disc length: 2543 seconds
#
# Revision: 1
# Processed by: cddbd v1.4PL0 Copyright (c) Steve Scherf et al.
# Submitted via: audiograbber 1.80
#
DISCID=9909ed0c
DTITLE=B.B. King - Everyday I Have The Blues
DYEAR=1900
DGENRE=
TTITLE0=Sweet Sixteen
TTITLE1=The Other Night Blues
TTITLE2=It's My Own Fault
TTITLE3=Evil Child
TTITLE4=Mr. Pawnbroker
TTITLE5=Catfish Blues
TTITLE6=You've Done Lost Your Good Thing Now
TTITLE7=Paying The Cost To Be The Boss
TTITLE8=Everyday I Have The Blues
TTITLE9=How Blue Can You Get
TTITLE10=The Letter
TTITLE11=A New Way Of Driving
EXTD=
EXTT0=
EXTT1=
EXTT2=
EXTT3=
EXTT4=
EXTT5=
EXTT6=
EXTT7=
EXTT8=
EXTT9=
EXTT10=
EXTT11=
PLAYORDER=
